C:/ffmpeg/bin/ffmpeg.exe -hide_banner -y -y -r 24 -start_number 0 -start_number_range 1 -i C:/Users/student/Desktop/софия/кадр%04d.png -i C:/Users/student/Desktop/софия/KritaTempPalettegen_%06d.png -lavfi [0:v][1:v]paletteuse=dither=sierra2_4a:diff_mode=none -f gif -loop 0 -gifflags +transdiff C:/Users/student/Desktop/софия/pfqxbr fybvrf.gif
=====================================================
Input #0, image2, from 'C:/Users/student/Desktop/софия/кадр%04d.png':
  Duration: 00:00:01.84, start: 0.000000, bitrate: N/A
  Stream #0:0: Video: png, rgba(pc, gbr/unknown/unknown), 2000x2000 [SAR 11811:11811 DAR 1:1], 25 fps, 25 tbr, 25 tbn
Input #1, image2, from 'C:/Users/student/Desktop/софия/KritaTempPalettegen_%06d.png':
  Duration: 00:00:00.04, start: 0.000000, bitrate: N/A
  Stream #1:0: Video: png, rgba(pc, gbr/unknown/unknown), 16x16 [SAR 1:1 DAR 1:1], 25 fps, 25 tbr, 25 tbn
Stream mapping:
  Stream #0:0 (png) -> paletteuse
  Stream #1:0 (png) -> paletteuse
  paletteuse:default -> Stream #0:0 (gif)
Press [q] to stop, [?] for help
Output #0, gif, to 'C:/Users/student/Desktop/софия/pfqxbr fybvrf.gif':
  Metadata:
    encoder         : Lavf62.5.100
  Stream #0:0: Video: gif, pal8(pc, gbr/unknown/unknown, progressive), 2000x2000 [SAR 1:1 DAR 1:1], q=2-31, 200 kb/s, 24 fps, 100 tbn
    Metadata:
      encoder         : Lavc62.15.100 gif
frame=    3 fps=0.0 q=-0.0 size=      41KiB time=00:00:00.12 bitrate=2669.1kbits/s speed=0.237x elapsed=0:00:00.52    frame=    7 fps=6.7 q=-0.0 size=      75KiB time=00:00:00.29 bitrate=2095.3kbits/s speed=0.279x elapsed=0:00:01.04    frame=   11 fps=7.1 q=-0.0 size=     108KiB time=00:00:00.45 bitrate=1926.0kbits/s speed=0.295x elapsed=0:00:01.55    frame=   16 fps=7.7 q=-0.0 size=     147KiB time=00:00:00.66 bitrate=1806.3kbits/s speed=0.32x elapsed=0:00:02.08    frame=   20 fps=7.7 q=-0.0 size=     177KiB time=00:00:00.83 bitrate=1740.4kbits/s speed=0.32x elapsed=0:00:02.60    frame=   25 fps=8.0 q=-0.0 size=     213KiB time=00:00:01.04 bitrate=1673.5kbits/s speed=0.334x elapsed=0:00:03.12    frame=   29 fps=8.0 q=-0.0 size=     240KiB time=00:00:01.20 bitrate=1628.8kbits/s speed=0.332x elapsed=0:00:03.64    frame=   34 fps=8.2 q=-0.0 size=     256KiB time=00:00:01.41 bitrate=1480.3kbits/s speed=0.34x elapsed=0:00:04.16    frame=   39 fps=8.4 q=-0.0 size=     256KiB time=00:00:01.62 bitrate=1290.6kbits/s speed=0.348x elapsed=0:00:04.67    frame=   43 fps=8.3 q=-0.0 size=     256KiB time=00:00:01.79 bitrate=1170.5kbits/s speed=0.346x elapsed=0:00:05.17    [out#0/gif @ 0000023d02905e80] video:388KiB audio:0KiB subtitle:0KiB other streams:0KiB global headers:0KiB muxing overhead: 0.005035%
frame=   46 fps=8.5 q=-0.0 Lsize=     388KiB time=00:00:01.91 bitrate=1658.1kbits/s speed=0.353x elapsed=0:00:05.43    
